<?xml version="1.0" encoding="utf-8"?>
<!-- Generator: Adobe Illustrator 15.0.0, SVG Export Plug-In . SVG Version: 6.00 Build 0)  -->
<!DOCTYPE svg PUBLIC "-//W3C//DTD SVG 1.0//EN" "http://www.w3.org/TR/2001/REC-SVG-20010904/DTD/svg10.dtd">
<svg version="1.0" id="Layer_1" xmlns="http://www.w3.org/2000/svg" xmlns:xlink="http://www.w3.org/1999/xlink" x="0px" y="0px"
	 width="612px" height="792px" viewBox="0 0 612 792" enable-background="new 0 0 612 792" xml:space="preserve">
<g>
	<path fill-rule="evenodd" clip-rule="evenodd" d="M372.938,372.607c2.946-0.309,3.754,4.104,1.293,5.028
		C370.816,378.917,368.651,373.057,372.938,372.607z"/>
	<path fill-rule="evenodd" clip-rule="evenodd" d="M345.358,389.271c-4.366,2.29-7.922,5.39-12.066,7.9
		c-5.55-3.834-11.333-7.437-16.95-11.205c6.277-0.905,14.151-0.979,20.542-1.292C339.912,386.001,342.476,387.796,345.358,389.271z"
		/>
	<path fill-rule="evenodd" clip-rule="evenodd" d="M348.375,394.441c2.24-0.378,3.943,0.978,3.878,3.304
		c-0.116,4.185-6.381,4.144-6.607,0.144C345.543,396.068,346.302,394.792,348.375,394.441z"/>
	<path fill-rule="evenodd" clip-rule="evenodd" d="M388.165,420.011c0.831-0.18,1.624,0.241,1.724,1.148
		C390.325,425.158,384.303,420.843,388.165,420.011z"/>
	<path fill-rule="evenodd" clip-rule="evenodd" d="M327.402,437.966c-3.913-2.804-12.972-3.168-16.95-0.144
		c-0.939-8.611-0.121-16.209,7.039-17.094C326.851,419.572,328.273,428.637,327.402,437.966z M321.226,432.221
		c4.019-1.887,3.457-8.115,0-9.769c-0.893-0.427-2.691-0.468-3.591-0.287C309.88,423.721,314.106,435.563,321.226,432.221z"/>
	<path fill-rule="evenodd" clip-rule="evenodd" d="M375.236,422.021c1.035-0.27,1.443,0.248,1.58,0.718
		c0.607,2.083-2.87,2.763-2.585,0.288C374.269,422.703,374.416,422.235,375.236,422.021z"/>
	<path fill-rule="evenodd" clip-rule="evenodd" d="M382.993,423.171c2.384-0.819,2.838,2.394,1.149,2.873
		C382.395,426.539,381.013,423.851,382.993,423.171z"/>
	<path fill-rule="evenodd" clip-rule="evenodd" d="M322.519,428.485c-1.144,2.368-2.992,3.161-5.171,2.442
		c-5.116-1.688-1.041-10.049,3.734-6.752C322.081,424.865,322.733,426.263,322.519,428.485z"/>
	<path fill-rule="evenodd" clip-rule="evenodd" d="M385.963,427.59c-0.563,3.719-1.518,7.487-2.204,11.221
		c-1.909,1.397-3.615,4.442-5.443,6.502c-0.181,0.471-0.49-0.1-0.743-0.217c-2.702,1.609-5.47,2.687-8.186,4.179
		c-0.15-0.424-0.515-0.824-0.665-1.249c2.27-1.52,4.542-3.014,6.838-4.319c-0.054-1.528,1.98-3.313,2.971-4.97
		c0.14-0.39-0.589-0.104-0.276-0.58c0.801-4.021,1.598-8.042,2.306-12.052C381.485,427.789,384.305,429.387,385.963,427.59z"/>
	<path fill-rule="evenodd" clip-rule="evenodd" d="M381.27,394.585c0.366,0.473,1.176-0.34,1.58,0.144
		c-0.043,1.001,0.241,1.674,0.287,2.585c0.021,0.237,0.6-0.15,1.006,0c0.436,2.678,0.772,5.452,1.149,8.188
		c1.032,0.026,1.834-0.177,2.729-0.287c0.317,2.508,0.639,5.011,1.005,7.47c-0.611-0.085-0.95,0.104-1.437,0.144
		c0.624,3.059,4.14,4.547,6.464,6.177c2.078,1.456,3.919,2.907,5.746,4.022c-0.044,0.335-0.281,0.593,0,0.861
		c1.276,2.22,2.4,4.59,3.735,6.752c0.125,0.556-0.628,0.234-0.432,0.861c0.121,2.991,0.264,5.961,0.432,8.906
		c-0.391,0.089-1.141-0.183-1.293,0.144c-0.675-2.39-0.954-5.175-1.293-7.9c-1.404-0.762-2.293-3.123-3.304-4.74
		c-1.225,0.03-2.021-1.231-3.16-1.724c0.857,1.68,2.055,3.021,3.017,4.597c-0.284,2.336,0.693,5.656,0.861,8.475
		c-1.653,2.513-2.235,6.097-3.304,9.193c-0.491-0.132-1.029-0.216-1.437-0.431c0.479-2.634,1.125-5.101,1.58-7.757
		c-0.856-1.441-0.962-3.635-1.293-5.603c-0.272-0.574-0.445,0.287-0.718-0.287c-1.081-1.688-2.188-3.258-3.304-4.884
		c-1.074-1.565-2.499-3.111-3.017-5.172c0.595-0.271,0.969,0.171,1.58,0.145c1.822-0.081,3.255-1.586,3.017-3.592
		c-0.436-3.664-6.479-3.277-6.177,0.862c-2.563-1.594-5.928,0.68-4.884,4.021c-1.079,0.246-1.83-0.013-3.017,0
		c-2.177,2.038-4.183,4.245-6.177,6.465c-0.378,0.373-0.113-0.232-0.575-0.145c-0.444,1.806-1.194,3.307-1.724,5.028
		c0.23,0.565-0.62,0.05-0.574,0.431c0.256,2.664,0.285,5.659,0.431,8.044c-0.611-0.085-0.95,0.104-1.437,0.144
		c-0.269-3.034-1.017-5.591-1.293-8.618c-0.073-0.405-0.313-0.646-0.718-0.719c0.63-2.685,2.297-5.976,2.154-8.475
		c1.686-1.571,3.18-3.333,4.74-5.027c-1.43-1.875-2.603-4.006-2.298-7.613c-0.229-0.372-1.084,0.319-1.437-0.144
		c-0.149-2.532-0.661-4.702-0.862-7.183c0.765-0.05,1.391-0.238,2.155-0.287c-0.238-2.778-0.62-5.413-1.006-8.044
		c0.012-0.468,0.651-0.307,1.006-0.432c-0.163-0.891-0.137-1.97-0.431-2.729c0.393-0.229,0.949-0.295,1.58-0.287
		c-0.387-3.684-0.885-7.256-1.437-10.773c-0.209-0.426-0.561,0.189-1.006,0c-0.043-0.868-0.307-1.513-0.287-2.442
		c5.641,0.086,10.014-1.095,11.491-5.171c0.612,1.782,0.687,4.101,1.149,6.033c-0.335,0-0.671,0-1.006,0
		c-0.026,1.654,0.447,2.809,0.432,4.453c1.867-2.545,2.655-8.855,2.872-13.646c0.193-4.246-0.237-8.201-1.292-11.205
		c-3.255-1.58-7.498-1.675-11.923-1.437c-9.086,0.49-19.945,1.816-29.878,2.729c-4.96,0.456-8.763,1.148-13.646,0.431
		c11.538-3.286,24.46-7.984,38.641-9.049c8.349-0.627,16.191-0.016,17.955,6.751c8.245,3.577,4.808,18.315,0,23.126
		C382.657,388.991,381.297,391.727,381.27,394.585z M367.911,357.381c-12.329,0.495-24.224,4.076-34.332,7.039
		c7.734-0.758,15.822-1.388,23.846-2.155c7.795-0.745,16.455-2.385,23.701-0.144C379.473,357.486,373.313,357.164,367.911,357.381z
		 M383.568,383.668c3.216-4.238,6.012-15.938,0-19.248C385.349,369.979,384.234,378.207,383.568,383.668z M384.286,409.668
		c0.072,1.978,3.387,2.127,3.304-0.144c-0.039-1.075-0.875-1.463-1.58-1.437C384.57,408.141,384.259,408.9,384.286,409.668z
		 M377.248,410.674c0.133,2.105,3.908,1.945,3.16-0.719c-0.219-0.777-1.066-1.12-2.012-0.861
		C377.291,409.396,377.207,410.03,377.248,410.674z M369.491,410.961c-0.48,1.554,1.008,2.793,2.729,1.867
		C374.046,410.617,370.156,408.807,369.491,410.961z M375.093,426.044c4.279,0.496,4.187-6.743-0.431-5.459
		C371.937,421.343,372.079,425.693,375.093,426.044z"/>
	<path fill-rule="evenodd" clip-rule="evenodd" d="M314.905,365.712c4.432-0.324,10.279,0.277,15.227,0.575
		c12.582,0.758,24.487,1.52,37.923,2.155c5.487,0.259,10.236,0.705,11.204,5.458c0.708,3.479-1.781,6.352-4.166,7.326
		c-3.027,1.237-10.967,1.108-14.938,1.293c-12.892,0.6-25.104,1.387-38.21,2.011c-2.666,0.127-5.32,0.653-7.613,0.431
		c-5.422-0.524-9.584-4.434-9.624-9.624C304.665,369.895,309.348,366.12,314.905,365.712z M369.348,376.486
		c0.312,1.077,1.328,2.101,2.154,2.442c6.379,2.632,7.962-9.132,0.718-7.613C370.048,371.771,368.517,373.618,369.348,376.486z"/>
	<path fill-rule="evenodd" clip-rule="evenodd" d="M328.408,432.076c0.544-7.034-3.48-12.354-9.624-12.354
		c-3.877,0-7.117,2.37-8.476,5.459c-1.717-4.839,1.163-10.657,3.879-13.359c2.167-2.155,5.271-3.886,8.188-5.889
		c5.641-3.873,10.632-7.494,16.52-11.492c2.497-1.695,5.845-4.479,9.193-4.74c5.096-0.397,8.869,3.006,8.906,7.9
		c0.034,4.697-3.366,7.378-5.746,10.056c-4.953,5.572-9.732,11.231-14.796,16.807C333.94,427.229,331.683,430.313,328.408,432.076z
		 M350.099,402.629c5.782-1.059,4.724-11.044-2.011-9.911C341.395,393.844,343.555,403.827,350.099,402.629z"/>
	<path fill-rule="evenodd" clip-rule="evenodd" d="M306.431,438.828c0.332,0.721,0.941,1.165,1.437,1.724
		c4.717-5.037,16.936-5.332,21.547,0.144c0.587-0.467,1.113-0.993,1.58-1.58c-0.682-1.473-3.139-1.171-2.729-3.734
		c4.573,2.791,8.798,7.365,9.337,14.364c0.626,8.129-0.468,17.1,0,25.281c0.56,0.302,1.651,0.072,2.442,0.144
		c0,1.628,0,3.256,0,4.884c0.387,0.331,1.385,0.052,2.011,0.145c0,1.676,0,3.352,0,5.027c-1.532,0-3.064,0-4.597,0
		c-0.335,2.634-0.048,5.889-0.144,8.762c-12.449,0-24.898,0-37.348,0c0-2.92,0-5.841,0-8.762c-1.58,0-3.16,0-4.74,0
		c0-1.676,0-3.352,0-5.027c0.718,0,1.437,0,2.155,0c0-1.677,0-3.353,0-5.028c0.718,0,1.437,0,2.155,0
		c0.651-8.972-0.381-17.819,0.144-25.138c0.488-6.813,4.723-11.998,9.481-14.795C309.926,437.536,307.266,437.651,306.431,438.828z"
		/>
	<path fill-rule="evenodd" clip-rule="evenodd" d="M292.209,494.85c16.868,0.197,36.263,0.211,52.862,0
		c0.335,4.74,0.048,10.103,0.144,15.083c-17.717,0-35.433,0-53.149,0c0-4.884,0-9.769,0-14.652
		C292.054,495.077,292.042,494.874,292.209,494.85z"/>
	<path fill-rule="evenodd" clip-rule="evenodd" d="M261.612,396.715c-2.96,0.129-3.108,4.611-0.538,5.163
		C264.642,402.643,265.918,396.526,261.612,396.715z"/>
	<path fill-rule="evenodd" clip-rule="evenodd" d="M253.545,445.846c-0.848-0.055-1.571,0.477-1.535,1.389
		C252.168,451.256,257.488,446.1,253.545,445.846z"/>
	<path fill-rule="evenodd" clip-rule="evenodd" d="M266.629,445.926c-1.063-0.113-1.391,0.459-1.457,0.943
		c-0.292,2.15,3.247,2.311,2.6-0.096C267.687,446.457,267.472,446.016,266.629,445.926z"/>
	<path fill-rule="evenodd" clip-rule="evenodd" d="M259.127,448.207c-2.479-0.459-2.454,2.785-0.713,3.012
		C260.216,451.451,261.187,448.59,259.127,448.207z"/>
	<path fill-rule="evenodd" clip-rule="evenodd" d="M255.75,450.889c-1.342,3.516-2.367,7.264-3.609,10.852
		c0.973,2.156,0.958,5.646,1.534,8.34c-0.074,0.498,0.476,0.154,0.754,0.178c1.559,2.73,3.436,5.031,5.065,7.668
		c0.34-0.295,0.853-0.463,1.193-0.76c-1.226-2.439-2.467-4.859-3.824-7.125c0.8-1.307-0.089-3.859-0.136-5.789
		c0.07-0.408,0.563,0.199,0.526-0.369c1.283-3.895,2.571-7.785,3.93-11.625C259.549,453.268,256.308,453.27,255.75,450.889z"/>
	<path fill-rule="evenodd" clip-rule="evenodd" d="M253.638,411.411c-5.465-4.05-11.039-18.12-3.412-22.874
		c0.746-6.954,6.639-16.671,14.989-17.282c14.183-1.039,25.734,1.312,29.621,2.658c-4.725,1.431-4.875,3.417-9.848,3.698
		c-9.959,0.562-4.701,0.623-13.759,1.478c-4.412,0.417-16.795,7.804-19.782,9.847c-0.6,3.127-0.442,7.102,0.376,11.272
		c0.921,4.706,2.631,10.831,4.854,13.073c-0.258-1.623,0.04-2.835-0.23-4.468c-0.331,0.05-0.664,0.099-0.995,0.148
		c0.172-1.979-0.095-4.284,0.247-6.136c2.063,3.813,6.562,4.336,12.128,3.418c0.157,0.916-0.01,1.594,0.077,2.458
		c-0.413,0.253-0.851-0.304-0.996,0.149c-0.026,3.559,0.008,7.166,0.168,10.865c0.623-0.1,1.184-0.117,1.605,0.051
		c-0.178,0.797,0.006,1.859-0.023,2.764c0.369,0.07,0.978-0.182,1.059,0.279c0.005,2.658,0.018,5.32,0.192,8.104
		c0.763-0.064,1.411,0.031,2.174-0.035c0.167,2.484-0.019,4.707,0.207,7.232c-0.281,0.51-1.227-0.047-1.398,0.354
		c0.833,3.523-0.013,5.805-1.15,7.869c1.793,1.445,3.531,2.967,5.43,4.273c0.228,2.492,2.361,5.502,3.381,8.064
		c-0.391,0.131-0.591,0.404-0.604,0.816c0.172,3.035-0.19,5.674-0.008,8.715c-0.487,0.031-0.851-0.105-1.442,0.068
		c-0.208-2.379-0.621-5.346-0.76-8.018c-0.011-0.385-0.776,0.252-0.632-0.342c-0.777-1.625-1.74-2.998-2.446-4.719
		c-0.47-0.02-0.119,0.541-0.548,0.227c-2.3-1.9-4.609-3.787-7.063-5.48c-1.176,0.16-1.88,0.527-2.983,0.443
		c0.539-3.459-3.124-5.211-5.424-3.256c-0.313-4.141-6.347-3.631-6.237,0.057c0.061,2.02,1.7,3.297,3.514,3.107
		c0.608-0.064,0.914-0.555,1.541-0.375c-0.208,2.113-1.389,3.854-2.22,5.561c-0.864,1.771-1.727,3.49-2.548,5.316
		c-0.184,0.609-0.482-0.217-0.666,0.393c-0.038,1.992,0.183,4.18-0.453,5.73c0.842,2.561,1.845,4.904,2.708,7.439
		c-0.371,0.273-0.892,0.434-1.357,0.637c-1.514-2.906-2.618-6.363-4.624-8.604c-0.251-2.814,0.227-6.242-0.4-8.51
		c0.72-1.701,1.706-3.205,2.307-4.99c-1.054,0.652-1.656,2.02-2.872,2.168c-0.761,1.75-1.292,4.217-2.568,5.176
		c0.067,2.746,0.201,5.543-0.113,8.006c-0.198-0.301-0.9,0.078-1.3,0.049c-0.269-2.938-0.565-5.896-0.887-8.873
		c0.101-0.648-0.595-0.219-0.555-0.787c1.002-2.336,1.764-4.848,2.7-7.229c0.237-0.307-0.035-0.527-0.128-0.852
		c1.643-1.373,3.249-3.08,5.09-4.828c2.059-1.955,5.315-3.945,5.481-7.063c-0.486,0.033-0.849-0.104-1.441,0.07
		c-0.001-2.486-0.052-5.01-0.108-7.535c0.902-0.025,1.725,0.059,2.743-0.119c-0.032-2.762-0.107-5.555-0.072-8.268
		c0.38-0.209,1.009,0.088,0.995-0.148c-0.09-0.908,0.094-1.617-0.098-2.6c0.329-0.539,1.249,0.145,1.542-0.377
		C256.166,416.857,254.417,414.352,253.638,411.411z M251.967,387.551c5.616-4.385,11.366-8.676,18.241-10.01
		c7.913-1.535,13.041-2.603,20.803-2.994c-10.436-1.439-16.181-2.918-28.447-1.59C257.189,373.54,252.919,382.723,251.967,387.551z
		 M249.891,390.185c-5.458,4.161-0.966,15.319,2.839,19.038C251.266,403.92,248.949,395.945,249.891,390.185z M253.918,433.734
		c-0.701,0.078-1.47,0.586-1.35,1.654c0.252,2.258,3.508,1.621,3.289-0.344C255.771,434.281,255.349,433.574,253.918,433.734z
		 M261.597,433.607c-0.974-0.117-1.761,0.348-1.863,1.148c-0.347,2.744,3.411,2.346,3.232,0.244
		C262.911,434.357,262.735,433.742,261.597,433.607z M268.255,436.389c1.84,0.662,3.128-0.783,2.424-2.25
		C269.704,432.107,266.124,434.473,268.255,436.389z M266.985,444.42c-4.756-0.588-3.78,6.586,0.38,5.465
		C270.294,449.092,269.793,444.77,266.985,444.42z"/>
	<path fill-rule="evenodd" clip-rule="evenodd" d="M324.345,371.384c2.079,4.756-0.129,10.022-4.866,12.711
		c-2.003,1.138-4.641,1.739-7.127,2.71c-12.223,4.772-23.695,9.031-35.712,13.738c-3.703,1.449-10.9,4.803-14.168,4.908
		c-2.575,0.082-6.019-1.527-6.791-4.992c-1.054-4.736,3.102-7.078,8.006-9.552c12.01-6.056,22.571-11.604,33.751-17.424
		c4.396-2.289,9.491-5.221,13.671-6.731C316.35,364.858,322.165,366.396,324.345,371.384z M261.055,395.229
		c-7.234,1.564-0.993,11.664,3.759,6.66c0.615-0.648,1.126-1.998,0.972-3.108C265.375,395.822,263.224,394.76,261.055,395.229z"/>
	<path fill-rule="evenodd" clip-rule="evenodd" d="M400.95,376.086c0.432-0.182,0.661-0.565,0.96-0.881
		c2.145,1.84,2.27,6.162,0.64,8.641c-0.478,0.727-1.161,1.377-1.76,2.08c-1.693,1.989-3.204,4.756-4.08,7.439
		c0.756-0.432,1.483-1.965,3.04-1.6c1.935-1.965,3.222-5.079,6.4-5.76c2.19-0.47,4.182,0.242,5.92,0.08
		c3.938-0.367,4.623-4.268,5.92-7.601c0.398,0.162,0.823,0.296,1.28,0.4c-1.475,4.394-2.589,8.601-7.841,8.64
		c-2.138,0.017-4.51-0.613-6.239,0.4c-2.259,1.322-3.181,3.641-4.96,5.439c-0.633,3.008-2.241,5.469-3.681,7.84
		c-1.438,2.371-3.051,4.626-4.64,6.881c-3.176,4.506-5.834,9.424-8.641,14.32c-2.811,4.904-5.517,9.795-8.399,14.559
		c-1.462,2.416-2.775,4.885-4.319,7.201c-2.932,4.395-6.408,9.367-9.281,13.68c-0.187,0.281-0.459,0.76-0.56,0.879
		c-0.319,0.385-0.081-0.082,0.08-0.398c7.374-14.537,15.519-28.502,23.681-42.4c0.703-1.198,1.477-2.398,2.159-3.6
		c0.692-1.217,1.488-2.396,2.08-3.601c1.024-2.083,1.781-4.214,2.8-6.24c0.998-1.985,1.868-4.032,3.12-5.92
		c0.595-4.418,2.369-8.298,4.72-11.2c1.24-1.53,2.994-2.803,3.04-5.359C402.422,378.252,401.625,377.287,400.95,376.086z
		 M397.03,395.365c0.504-0.643,1.241-1.478,1.52-2.08C398.021,393.904,397.288,394.743,397.03,395.365z M395.35,397.846
		c-0.951,2.008-2.268,3.652-2.8,6.08c1.164-0.535,1.82-1.895,2.561-3.04c0.767-1.188,1.585-2.429,2.16-3.681
		c0.044,0.001,0.091-0.064,0-0.08C396.814,397.555,396.208,398.061,395.35,397.846z"/>
	<circle fill-rule="evenodd" clip-rule="evenodd" stroke="#FFFFFF" stroke-miterlimit="10" cx="316.342" cy="375.205" r="7.484"/>
</g>
</svg>
