<?xml version="1.0" encoding="utf-8"?>
<!-- Generator: Adobe Illustrator 15.0.0, SVG Export Plug-In . SVG Version: 6.00 Build 0)  -->
<!DOCTYPE svg PUBLIC "-//W3C//DTD SVG 1.1//EN" "http://www.w3.org/Graphics/SVG/1.1/DTD/svg11.dtd">
<svg version="1.1" id="Layer_1" xmlns="http://www.w3.org/2000/svg" xmlns:xlink="http://www.w3.org/1999/xlink" x="0px" y="0px"
	 width="612px" height="792px" viewBox="0 0 612 792" style="enable-background:new 0 0 612 792;" xml:space="preserve">
<rect style="fill:#F7EDD8;" width="612" height="792"/>
<g>
	<path style="fill:#575048;" d="M358.799,248.222c-14.614,7.665-26.518,18.041-40.387,26.441
		c-18.576-12.833-37.932-24.892-56.733-37.504c21.01-3.029,47.365-3.276,68.753-4.324
		C340.569,237.276,349.149,243.285,358.799,248.222z"/>
	<path style="fill:#575048;" d="M298.699,411.203c-13.097-9.385-43.419-10.602-56.732-0.48c-3.144-28.821-0.406-54.251,23.56-57.215
		C296.853,349.641,301.615,379.979,298.699,411.203z M278.025,391.975c13.453-6.314,11.57-27.159,0-32.695
		c-2.988-1.429-9.005-1.567-12.019-0.962C240.051,363.525,254.198,403.161,278.025,391.975z"/>
	<path style="fill:#575048;" d="M494.702,376.476c-1.882,12.446-5.078,25.061-7.377,37.554c-6.391,4.679-12.101,14.87-18.217,21.767
		c-0.606,1.575-1.64-0.335-2.486-0.729c-9.044,5.387-18.311,8.995-27.399,13.991c-0.501-1.424-1.724-2.759-2.227-4.183
		c7.598-5.087,15.201-10.088,22.887-14.456c-0.18-5.116,6.627-11.089,9.946-16.634c0.467-1.307-1.971-0.35-0.926-1.941
		c2.681-13.46,5.348-26.916,7.718-40.338C479.716,377.142,489.151,382.49,494.702,376.476z"/>
	<path style="fill:#575048;" d="M478.993,266.007c1.227,1.583,3.939-1.137,5.288,0.482c-0.144,3.351,0.809,5.604,0.962,8.653
		c0.071,0.792,2.01-0.503,3.367,0c1.461,8.963,2.584,18.246,3.847,27.404c3.456,0.088,6.139-0.591,9.132-0.96
		c1.063,8.394,2.141,16.771,3.366,25.001c-2.046-0.284-3.18,0.35-4.812,0.484c2.09,10.237,13.856,15.218,21.636,20.673
		c6.956,4.874,13.117,9.731,19.231,13.464c-0.146,1.121-0.94,1.984,0,2.879c4.272,7.433,8.034,15.363,12.504,22.599
		c0.419,1.864-2.103,0.785-1.448,2.883c0.404,10.01,0.886,19.952,1.448,29.808c-1.311,0.299-3.822-0.614-4.329,0.483
		c-2.259-8-3.193-17.323-4.327-26.442c-4.7-2.55-7.676-10.451-11.062-15.865c-4.098,0.102-6.762-4.121-10.573-5.77
		c2.866,5.622,6.878,10.111,10.097,15.386c-0.952,7.817,2.321,18.931,2.883,28.364c-5.533,8.413-7.482,20.408-11.061,30.77
		c-1.641-0.439-3.441-0.723-4.808-1.442c1.602-8.816,3.765-17.074,5.287-25.965c-2.865-4.821-3.218-12.164-4.326-18.75
		c-0.912-1.923-1.49,0.96-2.406-0.961c-3.615-5.649-7.322-10.905-11.057-16.347c-3.597-5.239-8.365-10.414-10.098-17.311
		c1.991-0.908,3.242,0.572,5.289,0.483c6.096-0.271,10.893-5.308,10.096-12.021c-1.457-12.264-21.683-10.969-20.673,2.886
		c-8.581-5.337-19.84,2.275-16.348,13.456c-3.611,0.825-6.124-0.042-10.099,0c-7.285,6.822-14,14.209-20.674,21.64
		c-1.265,1.248-0.378-0.775-1.926-0.484c-1.483,6.042-3.994,11.068-5.769,16.83c0.769,1.89-2.075,0.166-1.922,1.44
		c0.857,8.919,0.954,18.942,1.442,26.923c-2.044-0.284-3.178,0.349-4.81,0.48c-0.9-10.15-3.405-18.711-4.328-28.84
		c-0.243-1.357-1.049-2.165-2.401-2.411c2.107-8.985,7.688-20,7.207-28.363c5.646-5.259,10.646-11.155,15.865-16.827
		c-4.784-6.276-8.71-13.408-7.69-25.482c-0.768-1.242-3.627,1.069-4.812-0.48c-0.495-8.476-2.209-15.739-2.883-24.04
		c2.56-0.17,4.655-0.798,7.212-0.961c-0.795-9.299-2.074-18.118-3.367-26.923c0.042-1.568,2.181-1.03,3.367-1.448
		c-0.544-2.981-0.459-6.592-1.442-9.133c1.318-0.768,3.177-0.987,5.288-0.96c-1.295-12.33-2.961-24.286-4.811-36.057
		c-0.699-1.427-1.877,0.632-3.367,0c-0.144-2.906-1.027-5.064-0.961-8.173c18.882,0.288,33.519-3.666,38.461-17.31
		c2.05,5.966,2.302,13.727,3.847,20.194c-1.12,0-2.245,0-3.366,0c-0.088,5.535,1.493,9.402,1.445,14.904
		c6.25-8.519,8.887-29.638,9.612-45.673c0.646-14.212-0.795-27.449-4.323-37.503c-10.896-5.29-25.097-5.606-39.906-4.811
		c-30.411,1.64-66.759,6.078-100.002,9.134c-16.603,1.526-29.333,3.842-45.675,1.443c38.617-10.999,81.866-26.724,129.333-30.288
		c27.943-2.098,54.189-0.054,60.096,22.596c27.595,11.972,16.092,61.3,0,77.402C483.639,247.285,479.086,256.442,478.993,266.007z
		 M434.282,141.484c-41.265,1.657-81.076,13.644-114.91,23.56c25.888-2.536,52.958-4.645,79.812-7.212
		c26.092-2.493,55.076-7.983,79.33-0.481C472.979,141.836,452.361,140.759,434.282,141.484z M486.688,229.468
		c10.763-14.184,20.12-53.345,0-64.424C492.646,183.651,488.917,211.19,486.688,229.468z M489.09,316.491
		c0.242,6.622,11.335,7.119,11.057-0.48c-0.13-3.599-2.927-4.899-5.288-4.812C490.042,311.379,488.998,313.922,489.09,316.491z
		 M465.533,319.857c0.444,7.047,13.081,6.511,10.578-2.406c-0.732-2.602-3.569-3.749-6.733-2.882
		C465.677,315.583,465.396,317.703,465.533,319.857z M439.571,320.818c-1.608,5.2,3.373,9.348,9.132,6.25
		C454.815,319.667,441.797,313.607,439.571,320.818z M458.32,371.302c14.322,1.659,14.016-22.57-1.442-18.272
		C447.759,355.567,448.233,370.128,458.32,371.302z"/>
	<path style="fill:#575048;" d="M256.871,169.369c14.833-1.084,34.403,0.928,50.963,1.925c42.112,2.537,81.961,5.087,126.928,7.212
		c18.367,0.868,34.263,2.36,37.502,18.268c2.369,11.645-5.962,21.261-13.943,24.522c-10.13,4.139-36.707,3.707-49.997,4.327
		c-43.151,2.009-84.024,4.644-127.889,6.729c-8.923,0.427-17.807,2.188-25.482,1.443c-18.147-1.753-32.078-14.841-32.212-32.212
		C222.597,183.37,238.27,170.735,256.871,169.369z M439.091,205.43c1.046,3.605,4.445,7.032,7.21,8.173
		c21.352,8.81,26.649-30.565,2.402-25.48C441.435,189.648,436.31,195.831,439.091,205.43z"/>
	<path style="fill:#575048;" d="M302.065,391.492c1.821-23.544-11.648-41.351-32.212-41.351c-12.976,0-23.821,7.933-28.371,18.271
		c-5.747-16.196,3.893-35.667,12.982-44.71c7.253-7.214,17.644-13.009,27.407-19.713c18.879-12.962,35.586-25.08,55.29-38.463
		c8.359-5.671,19.567-14.991,30.771-15.864c17.056-1.328,29.687,10.061,29.81,26.439c0.115,15.723-11.268,24.694-19.232,33.66
		c-16.578,18.648-32.575,37.589-49.521,56.252C320.581,375.267,313.025,385.588,302.065,391.492z M374.664,292.931
		c19.353-3.543,15.813-36.964-6.73-33.173C345.531,263.526,352.762,296.941,374.664,292.931z"/>
	<path style="fill:#575048;" d="M228.506,414.091c1.111,2.413,3.15,3.898,4.811,5.771c15.788-16.86,56.684-17.848,72.118,0.481
		c1.964-1.565,3.726-3.324,5.289-5.288c-2.286-4.933-10.506-3.919-9.137-12.498c15.307,9.34,29.45,24.65,31.251,48.077
		c2.096,27.207-1.564,57.23,0,84.617c1.877,1.009,5.527,0.237,8.176,0.479c0,5.448,0,10.896,0,16.347
		c1.294,1.107,4.633,0.175,6.729,0.485c0,5.61,0,11.218,0,16.825c-5.126,0-10.253,0-15.386,0c-1.122,8.818-0.159,19.711-0.48,29.327
		c-41.667,0-83.335,0-125.006,0c0-9.771,0-19.549,0-29.327c-5.287,0-10.575,0-15.864,0c0-5.609,0-11.219,0-16.825
		c2.402,0,4.81,0,7.212,0c0-5.611,0-11.224,0-16.83c2.404,0,4.81,0,7.213,0c2.179-30.028-1.276-59.639,0.482-84.135
		c1.633-22.806,15.807-40.157,31.733-49.52C240.205,409.767,231.301,410.152,228.506,414.091z"/>
	<path style="fill:#575048;" d="M180.906,601.597c56.458,0.659,121.372,0.704,176.931,0c1.121,15.864,0.161,33.815,0.481,50.481
		c-59.299,0-118.594,0-177.891,0c0-16.347,0-32.696,0-49.038C180.388,602.356,180.347,601.677,180.906,601.597z"/>
	<path style="fill:#575048;" d="M58.877,454.457c-4.491,11.771-7.923,24.315-12.079,36.322c3.258,7.219,3.207,18.897,5.134,27.914
		c-0.247,1.668,1.593,0.518,2.525,0.597c5.217,9.137,11.5,16.838,16.952,25.664c1.137-0.987,2.855-1.547,3.993-2.542
		c-4.104-8.166-8.258-16.265-12.8-23.849c2.679-4.374-0.297-12.918-0.454-19.375c0.233-1.368,1.885,0.665,1.76-1.237
		c4.295-13.034,8.606-26.057,13.154-38.907C71.592,462.42,60.746,462.427,58.877,454.457z"/>
	<path style="fill:#575048;" d="M51.809,322.325c-18.292-13.555-36.948-60.648-11.42-76.561
		c2.497-23.275,22.221-55.797,50.167-57.843c47.472-3.478,86.133,4.391,99.143,8.897c-15.815,4.788-16.317,11.436-32.962,12.376
		c-33.332,1.881-15.733,2.085-46.051,4.946c-14.767,1.396-56.212,26.121-66.211,32.959c-2.006,10.466-1.479,23.771,1.26,37.728
		c3.082,15.751,8.805,36.251,16.245,43.756c-0.863-5.433,0.134-9.488-0.77-14.958c-1.106,0.17-2.221,0.334-3.329,0.497
		c0.576-6.622-0.319-14.338,0.827-20.536c6.905,12.76,21.962,14.513,40.593,11.44c0.524,3.066-0.034,5.334,0.257,8.227
		c-1.381,0.848-2.849-1.016-3.333,0.498c-0.089,11.914,0.026,23.984,0.562,36.365c2.085-0.333,3.962-0.392,5.372,0.17
		c-0.597,2.667,0.02,6.224-0.077,9.254c1.233,0.231,3.272-0.611,3.543,0.931c0.018,8.897,0.06,17.809,0.644,27.125
		c2.553-0.215,4.722,0.104,7.275-0.117c0.56,8.316-0.063,15.756,0.693,24.207c-0.941,1.707-4.106-0.159-4.679,1.184
		c2.788,11.793-0.044,19.429-3.848,26.339c6.001,4.838,11.817,9.929,18.173,14.302c0.763,8.339,7.903,18.415,11.315,26.989
		c-1.307,0.438-1.978,1.354-2.02,2.733c0.575,10.158-0.637,18.989-0.027,29.167c-1.629,0.105-2.849-0.351-4.826,0.226
		c-0.696-7.962-2.079-17.892-2.544-26.835c-0.036-1.287-2.597,0.844-2.115-1.143c-2.6-5.438-5.823-10.036-8.187-15.792
		c-1.574-0.07-0.398,1.804-1.834,0.756c-7.698-6.361-15.426-12.675-23.64-18.342c-3.936,0.536-6.292,1.765-9.983,1.482
		c1.804-11.576-10.457-17.441-18.154-10.896c-1.047-13.859-21.244-12.152-20.876,0.189c0.205,6.762,5.69,11.034,11.762,10.399
		c2.035-0.215,3.06-1.857,5.158-1.254c-0.696,7.072-4.649,12.897-7.429,18.609c-2.893,5.931-5.781,11.683-8.53,17.796
		c-0.616,2.038-1.613-0.726-2.229,1.314c-0.127,6.668,0.612,13.991-1.515,19.181c2.817,8.569,6.175,16.413,9.062,24.895
		c-1.241,0.916-2.984,1.455-4.542,2.136c-5.066-9.729-8.762-21.298-15.476-28.801c-0.841-9.417,0.759-20.892-1.339-28.481
		c2.41-5.695,5.71-10.728,7.722-16.703c-3.529,2.184-5.544,6.763-9.613,7.256c-2.546,5.858-4.325,14.115-8.595,17.323
		c0.224,9.193,0.673,18.555-0.38,26.799c-0.661-1.01-3.012,0.261-4.35,0.164c-0.9-9.833-1.891-19.736-2.969-29.696
		c0.338-2.173-1.991-0.734-1.856-2.638c3.354-7.816,5.904-16.225,9.036-24.196c0.794-1.024-0.116-1.761-0.428-2.849
		c5.5-4.597,10.875-10.309,17.038-16.161c6.89-6.543,17.789-13.205,18.344-23.638c-1.627,0.108-2.841-0.351-4.823,0.233
		c-0.004-8.32-0.175-16.771-0.362-25.219c3.02-0.085,5.773,0.198,9.182-0.399c-0.109-9.246-0.358-18.594-0.241-27.674
		c1.271-0.7,3.376,0.293,3.33-0.494c-0.302-3.04,0.315-5.413-0.328-8.704c1.1-1.805,4.181,0.487,5.162-1.262
		C60.27,340.554,54.416,332.167,51.809,322.325z M46.215,242.463c18.798-14.675,38.043-29.038,61.054-33.502
		c26.485-5.138,43.648-8.713,69.628-10.022c-34.93-4.816-54.159-9.767-95.213-5.321C63.693,195.569,49.401,226.306,46.215,242.463z
		 M39.267,251.281C21,265.208,36.033,302.554,48.77,315C43.87,297.252,36.115,270.559,39.267,251.281z M52.746,397.041
		c-2.347,0.263-4.92,1.962-4.52,5.536c0.844,7.559,11.742,5.424,11.008-1.153C58.948,398.87,57.535,396.506,52.746,397.041z
		 M78.447,396.616c-3.26-0.391-5.894,1.164-6.236,3.841c-1.16,9.186,11.417,7.852,10.817,0.816
		C82.846,399.127,82.256,397.066,78.447,396.616z M100.731,405.926c6.16,2.217,10.468-2.618,8.114-7.531
		C105.582,391.595,93.6,399.513,100.731,405.926z M96.48,432.806c-15.918-1.966-12.651,22.045,1.273,18.292
		C107.556,448.444,105.88,433.978,96.48,432.806z"/>
	<path style="fill:#575048;" d="M288.465,188.353c6.959,15.919-0.432,33.545-16.287,42.545c-6.704,3.808-15.532,5.82-23.854,9.07
		c-40.91,15.972-79.306,30.227-119.527,45.981c-12.395,4.851-36.482,16.075-47.42,16.428c-8.62,0.275-20.146-5.112-22.73-16.709
		c-3.527-15.851,10.383-23.69,26.796-31.97c40.197-20.271,75.545-38.84,112.965-58.32c14.713-7.661,31.766-17.476,45.759-22.528
		C261.705,166.511,281.17,171.658,288.465,188.353z M76.634,268.163c-24.214,5.234-3.325,39.038,12.581,22.29
		c2.059-2.167,3.77-6.688,3.254-10.401C91.092,270.147,83.893,266.593,76.634,268.163z"/>
</g>
<path style="fill:#FCFCF6;stroke:#031325;stroke-miterlimit:10;" d="M544.866,204.091c1.442-0.61,2.212-1.892,3.213-2.949
	c7.177,6.159,7.594,20.625,2.14,28.922c-1.598,2.432-3.886,4.608-5.89,6.96c-5.668,6.659-10.725,15.92-13.656,24.899
	c2.53-1.445,4.966-6.577,10.175-5.354c6.475-6.578,10.784-17,21.423-19.28c7.327-1.572,13.996,0.811,19.813,0.268
	c13.181-1.229,15.475-14.285,19.815-25.44c1.33,0.542,2.756,0.99,4.285,1.338c-4.939,14.708-8.668,28.788-26.247,28.919
	c-7.155,0.057-15.094-2.051-20.88,1.339c-7.563,4.425-10.648,12.187-16.6,18.204c-2.121,10.069-7.503,18.306-12.323,26.242
	c-4.813,7.936-10.211,15.483-15.529,23.03c-10.629,15.082-19.526,31.542-28.923,47.931c-9.406,16.411-18.464,32.784-28.11,48.728
	c-4.893,8.087-9.289,16.35-14.457,24.103c-9.813,14.708-21.449,31.352-31.061,45.786c-0.628,0.94-1.539,2.543-1.877,2.942
	c-1.069,1.285-0.271-0.275,0.268-1.332c24.682-48.656,51.941-95.396,79.261-141.914c2.353-4.011,4.944-8.024,7.227-12.048
	c2.316-4.076,4.981-8.021,6.962-12.054c3.427-6.972,5.962-14.104,9.371-20.883c3.341-6.646,6.254-13.497,10.443-19.818
	c1.989-14.785,7.929-27.772,15.796-37.485c4.151-5.12,10.021-9.382,10.176-17.937C549.791,211.341,547.123,208.111,544.866,204.091z
	 M531.745,268.62c1.688-2.153,4.153-4.947,5.086-6.963C535.063,263.728,532.608,266.537,531.745,268.62z M526.12,276.922
	c-3.181,6.72-7.591,12.223-9.371,20.35c3.896-1.791,6.092-6.34,8.572-10.175c2.567-3.975,5.306-8.13,7.232-12.32
	c0.146,0.003,0.302-0.216,0-0.267C531.022,275.947,528.992,277.64,526.12,276.922z"/>
<g>
	<path style="fill:#031325;" d="M451.105,192.446c9.86-1.034,12.568,13.736,4.332,16.828
		C444.006,213.566,436.76,193.954,451.105,192.446z"/>
	<path style="fill:#031325;" d="M368.895,265.525c7.499-1.264,13.198,3.274,12.98,11.06c-0.39,14.006-21.357,13.868-22.112,0.481
		C359.416,270.973,361.956,266.7,368.895,265.525z"/>
	<path style="fill:#031325;" d="M502.073,351.108c2.781-0.601,5.436,0.808,5.77,3.844
		C509.303,368.337,489.146,353.893,502.073,351.108z"/>
	<path style="fill:#031325;" d="M458.8,357.838c3.466-0.905,4.827,0.827,5.289,2.403c2.029,6.971-9.607,9.247-8.651,0.964
		C455.562,360.119,456.056,358.555,458.8,357.838z"/>
	<path style="fill:#031325;" d="M484.763,361.686c7.979-2.743,9.499,8.015,3.844,9.617
		C482.759,372.958,478.134,363.96,484.763,361.686z"/>
	<path style="fill:#031325;" d="M282.353,379.473c-3.828,7.923-10.011,10.581-17.307,8.172c-17.121-5.649-3.485-33.635,12.499-22.6
		C280.889,367.357,283.072,372.034,282.353,379.473z"/>
	<path style="fill:#031325;" d="M78.497,273.136c-9.908,0.431-10.403,15.435-1.8,17.281
		C88.639,292.977,92.91,272.506,78.497,273.136z"/>
	<path style="fill:#031325;" d="M51.497,437.576c-2.839-0.181-5.258,1.6-5.138,4.653C46.888,455.686,64.693,438.43,51.497,437.576z"
		/>
	<path style="fill:#031325;" d="M95.29,437.846c-3.558-0.379-4.656,1.538-4.877,3.158c-0.977,7.194,10.868,7.734,8.703-0.32
		C98.831,439.623,98.111,438.146,95.29,437.846z"/>
	<path style="fill:#031325;" d="M70.18,445.48c-8.297-1.534-8.214,9.323-2.386,10.08C73.824,456.339,77.075,446.763,70.18,445.48z"
		/>
	<circle style="fill:#031325;stroke:#F7EDD8;stroke-width:4;stroke-miterlimit:10;" cx="261.679" cy="201.143" r="25.049"/>
</g>
</svg>
